<!-- icon666.com - MILLIONS vector ICONS FREE --><svg xmlns="http://www.w3.org/2000/svg" xmlns:xlink="http://www.w3.org/1999/xlink" version="1.1" id="Layer_1" x="0px" y="0px" viewBox="0 0 511.856 511.856" style="enable-background:new 0 0 511.856 511.856;" xml:space="preserve"><g><g><path style="fill:#91AABE;" d="M306.953,10.668l-27.314,27.314c-8.844,8.844-14.159,20.609-14.951,33.09l-4.395,69.276 l40.569-26.917l32.668-32.668c8.794-8.794,11.257-22.1,6.192-33.459l-14.858-33.321C321.707,6.903,312.434,5.187,306.953,10.668z"></path><path style="fill:#91AABE;" d="M501.185,204.9l-27.314,27.314c-8.844,8.844-20.609,14.159-33.09,14.951l-69.276,4.395 l26.917-40.569l32.668-32.668c8.794-8.794,22.1-11.257,33.459-6.192l33.321,14.858C504.95,190.146,506.666,199.419,501.185,204.9z "></path><polygon style="fill:#60DAA8;" points="199.035,146.416 41.899,303.552 67.695,401.684 208.308,469.961 365.444,312.825 323.843,188.017 "></polygon><polygon style="fill:#00C5A3;" points="323.843,188.017 301.343,180.517 335.444,282.825 178.308,439.961 63.045,383.993 67.695,401.684 208.308,469.961 365.444,312.825 "></polygon><path style="fill:#D5EBF6;" d="M41.899,303.552l166.409,166.409c-22.978,22.978-53.093,34.467-83.208,34.467 s-60.23-11.489-83.208-34.467C-4.057,424.012-4.057,349.508,41.899,303.552z"></path><path style="fill:#A6C1D8;" d="M178.308,439.961c-22.978,22.978-53.093,34.467-83.208,34.467 c-23.402,0-46.802-6.942-66.855-20.817c3.98,5.751,8.526,11.229,13.647,16.351c22.978,22.978,53.093,34.467,83.208,34.467 s60.23-11.489,83.208-34.467L178.308,439.961z"></path><path style="fill:#D5EBF6;" d="M365.444,146.409c45.956,45.956,45.956,120.46,0,166.416L199.035,146.416 c22.978-22.978,53.093-34.467,83.208-34.467C312.357,111.949,342.466,123.431,365.444,146.409z"></path><path style="fill:#A6C1D8;" d="M365.444,146.409c-5.122-5.122-10.6-9.668-16.351-13.648 c31.732,45.858,27.185,109.229-13.649,150.063l30,30C411.399,266.869,411.399,192.365,365.444,146.409z"></path><path style="fill:#91AABE;" d="M401.036,82.768l-76.75,76.75c-3.904,3.904-3.904,10.234,0,14.138l13.91,13.91 c3.904,3.904,10.234,3.904,14.138,0l76.75-76.75c3.904-3.904,3.904-10.234,0-14.138l-13.91-13.91 C411.27,78.864,404.94,78.864,401.036,82.768z"></path></g><g><path d="M158.702,340.702c-2.929-2.929-7.678-2.929-10.606,0c-2.929,2.929-2.929,7.678,0,10.606c0,0,8.371,8.371,8.375,8.375 c2.806,2.805,7.658,2.949,10.606,0c2.929-2.929,2.929-7.678,0-10.606L158.702,340.702z"></path><path d="M240.641,258.763l8.375,8.375c2.893,2.894,7.719,2.888,10.606,0c2.929-2.929,2.929-7.678,0-10.607l-8.375-8.374 c-2.929-2.929-7.678-2.929-10.606,0C237.712,251.086,237.712,255.835,240.641,258.763z"></path><path d="M218.381,288.621c-4.133,0.278-7.258,3.853-6.98,7.986c0.259,3.858-1.268,7.747-4.188,10.668 c-2.92,2.92-6.804,4.447-10.668,4.188c-4.127-0.279-7.708,2.848-7.985,6.98c-0.278,4.133,2.848,7.708,6.98,7.986 c8.259,0.555,16.449-2.718,22.279-8.548c5.981-5.982,9.097-14.102,8.547-22.279C226.089,291.468,222.526,288.343,218.381,288.621z "></path><path d="M506.558,210.524c9.038-9.038,6.075-24.874-5.564-30.064c0,0-33.315-14.855-33.321-14.858 c-14.067-6.273-30.939-3.14-41.816,7.739l-22.982,22.981c-3.275-11.773-8.267-23.053-14.861-33.438 c0,0,46.421-46.421,46.443-46.443c6.739-6.738,6.729-18.016,0-24.745c0,0-13.904-13.904-13.91-13.91 c-6.743-6.743-18.011-6.735-24.745,0l-46.45,46.45c-10.414-6.628-21.639-11.636-33.395-14.903l22.945-22.946 c10.915-10.914,14.025-27.719,7.739-41.817c0,0-14.843-33.288-14.858-33.321c-5.209-11.682-21.03-14.596-30.064-5.563 l-27.313,27.313c-10.14,10.14-16.225,23.606-17.133,37.919l-2.337,36.84c-22.982,5.102-44.083,16.625-61.135,33.676L36.665,298.57 C13.022,322.212,0.001,353.646,0,387.08c-0.001,33.434,13.018,64.865,36.658,88.505c20.209,20.21,45.876,32.604,74.225,35.844 c0.29,0.033,0.577,0.049,0.861,0.049c3.761,0,7.005-2.823,7.442-6.649c0.47-4.115-2.485-7.833-6.6-8.303 c-24.946-2.85-47.534-13.759-65.322-31.547C26.458,444.172,14.999,416.507,15,387.08c0-26.913,9.588-52.355,27.144-72.424 l155.45,155.45c-16.08,14.074-35.608,23.036-56.91,26.048c-4.101,0.58-6.956,4.375-6.376,8.477 c0.58,4.101,4.372,6.956,8.477,6.376c27.029-3.822,51.543-16.07,70.895-35.421c0,0,157.137-157.136,157.138-157.138 c16.855-16.856,28.467-38.118,33.627-61.137l36.88-2.34c14.312-0.908,27.779-6.992,37.919-17.133 C479.244,237.838,506.535,210.546,506.558,210.524z M406.408,88.392c0.963-0.963,2.573-0.959,3.532,0l13.91,13.91 c0.96,0.96,0.956,2.574,0,3.531l-76.751,76.751c-0.949,0.949-2.576,0.955-3.531,0l-13.91-13.91c-0.958-0.96-0.955-2.575,0-3.531 C329.658,165.143,406.408,88.393,406.408,88.392z M319.051,154.536c-6.614,6.614-6.608,18.141,0,24.745 c0,0,13.892,13.892,13.91,13.91c6.622,6.623,18.134,6.611,24.745,0l19.407-19.407c7.166,12.094,11.923,25.467,14.062,39.328 c4.916,31.852-4.666,64.964-25.844,89.246L255.176,192.203c-2.929-2.929-7.678-2.929-10.606,0c-2.929,2.929-2.929,7.678,0,10.606 l110.336,110.336l-146.53,146.53L52.574,303.873l146.529-146.529c0,0,24.242,24.242,24.252,24.252c2.84,2.84,7.691,2.915,10.606,0 c2.929-2.929,2.929-7.677,0-10.606l-24.076-24.077c15.25-13.34,33.606-22.065,53.349-25.493c0.034-0.005,0.068-0.003,0.102-0.009 c12.25-2.115,24.329-1.828,36.605-0.235c13.613,2.181,26.635,6.879,38.521,13.947 C338.464,135.124,319.084,154.504,319.051,154.536z M272.242,71.868c0.677-10.667,5.212-20.705,12.77-28.262 c0,0,27.313-27.313,27.315-27.314c1.744-1.743,4.753-1.186,5.757,1.066l14.858,33.321c3.773,8.463,1.906,18.55-4.646,25.102 l-30.013,30.014c-9.34-1.185-18.793-1.339-28.165-0.438L272.242,71.868z M440.375,240.001l-33.49,2.124 c0.55-0.011,0.578-10.636,0.581-11.86c0.012-5.432-0.32-10.919-1.012-16.309c0,0,29.999-29.999,30.01-30.009 c6.516-6.516,16.689-8.396,25.102-4.645l33.321,14.858c2.253,1.004,2.8,4.023,1.066,5.758l-27.313,27.313 C461.079,234.789,451.042,239.324,440.375,240.001z"></path></g></g></svg>