<?xml version="1.0" standalone="no"?>
<!DOCTYPE svg PUBLIC "-//W3C//DTD SVG 20010904//EN"
 "http://www.w3.org/TR/2001/REC-SVG-20010904/DTD/svg10.dtd">
<svg version="1.0" xmlns="http://www.w3.org/2000/svg"
 width="1280.000000pt" height="854.000000pt" viewBox="0 0 1280.000000 854.000000"
 preserveAspectRatio="xMidYMid meet">
<metadata>
Created by potrace 1.15, written by Peter Selinger 2001-2017
</metadata>
<g transform="translate(0.000000,854.000000) scale(0.100000,-0.100000)"
fill="#000000" stroke="none">
<path d="M12375 8530 c-42 -16 -46 -33 -25 -95 20 -57 20 -85 20 -2084 0
-1960 -1 -2033 -20 -2230 l-21 -204 21 -22 c13 -14 20 -35 20 -63 0 -45 -9
-50 -52 -32 -13 5 -219 73 -458 150 -441 144 -673 219 -1105 360 -132 43 -339
111 -460 150 -400 131 -706 231 -1040 340 -181 60 -373 123 -425 140 l-95 30
-372 0 -371 0 -32 40 -32 40 -895 2 -895 3 0 95 0 95 -230 5 -229 5 1 228 1
227 -25 0 c-23 0 -25 3 -23 40 l2 40 533 0 c525 0 532 0 532 -20 0 -11 5 -20
10 -20 6 0 10 70 10 190 l0 190 -50 0 c-43 0 -50 -3 -48 -17 3 -17 -19 -18
-324 -21 -281 -2 -328 0 -328 12 0 8 10 16 23 18 14 2 21 9 19 20 -2 13 7 17
40 20 34 2 43 7 42 21 -1 10 5 17 17 17 12 0 19 -7 19 -20 0 -51 170 4 178 58
2 15 -13 43 -45 82 -45 56 -51 60 -89 60 -33 0 -43 -4 -47 -20 -5 -19 -14 -20
-141 -20 -113 0 -136 3 -136 15 0 11 19 15 93 17 80 3 92 5 91 21 -2 15 9 17
86 17 128 0 214 41 168 79 -75 62 -71 60 -174 63 -88 3 -99 5 -96 21 3 16 -17
17 -293 17 -288 0 -295 0 -295 20 0 14 -7 20 -24 20 -15 0 -26 -7 -29 -20 -5
-19 -14 -20 -146 -20 l-141 0 0 -90 c0 -84 1 -90 21 -90 17 0 20 -5 17 -32 -2
-21 -9 -33 -18 -34 -8 -1 -45 -2 -81 -2 -58 -2 -67 -5 -72 -22 -4 -17 -14 -20
-60 -20 l-54 0 -6 -62 c-3 -35 -3 -75 0 -90 5 -27 8 -28 65 -28 43 0 59 -3 56
-12 -4 -10 -72 -14 -286 -16 -277 -2 -282 -2 -282 18 0 27 -47 27 -125 0 -55
-19 -84 -20 -537 -20 l-478 0 0 -130 0 -130 488 0 c463 0 492 -1 547 -20 55
-19 84 -20 582 -20 413 0 524 -3 521 -12 -3 -7 -21 -17 -40 -23 -20 -5 -45
-18 -55 -27 -11 -10 -24 -18 -29 -18 -5 0 -9 -95 -9 -227 l0 -228 -57 -3 -58
-3 0 66 c0 58 -2 65 -20 65 -13 0 -20 7 -20 20 0 13 -7 20 -20 20 -17 0 -20 7
-20 40 l0 40 -50 0 -50 0 0 -34 c0 -34 -1 -35 -43 -38 -35 -2 -43 -7 -45 -25
-3 -22 -8 -23 -78 -23 -67 0 -74 2 -74 20 0 18 -7 20 -64 20 -55 0 -64 -3 -69
-20 -4 -15 -14 -20 -36 -20 -30 0 -31 2 -32 43 l-2 42 -6 -40 c-5 -31 -11 -41
-28 -43 -22 -3 -23 -6 -25 -165 l-3 -162 -57 -3 -58 -3 0 -38 0 -38 -268 -7
c-257 -7 -268 -8 -309 -32 -50 -29 -93 -107 -93 -170 0 -39 -77 -524 -84 -531
-2 -2 -9 3 -16 12 -48 58 -96 -49 -107 -235 -5 -89 -2 -118 17 -193 17 -66 21
-102 16 -145 -8 -72 -66 -233 -86 -239 -8 -2 -22 -8 -31 -13 -9 -5 -131 -12
-270 -15 -432 -11 -1314 -85 -1744 -145 -205 -29 -852 -154 -920 -177 -23 -8
-55 -28 -73 -44 l-32 -30 0 -205 c0 -197 -1 -204 -20 -204 -17 0 -20 -7 -20
-45 l0 -45 40 0 40 0 0 -77 c0 -73 -1 -75 -18 -60 -16 14 -43 17 -170 17 -145
0 -152 -1 -152 -20 0 -13 -7 -20 -20 -20 -18 0 -20 -7 -20 -70 0 -63 2 -70 20
-70 19 0 20 -7 20 -165 l0 -165 36 0 c21 0 53 10 73 23 l36 22 -67 3 -68 3 0
143 c0 122 3 150 20 187 l20 44 0 -127 0 -128 270 0 c149 0 270 -2 270 -5 0
-21 -102 -155 -118 -155 -12 0 -12 -3 -2 -15 10 -12 7 -24 -17 -62 -39 -65
-68 -144 -83 -230 -7 -40 -17 -73 -21 -73 -5 0 -8 -95 -9 -210 0 -116 4 -210
9 -210 4 0 11 -21 15 -47 18 -127 25 -154 64 -232 23 -46 39 -87 37 -92 -3 -4
4 -24 15 -44 11 -19 20 -47 20 -62 0 -22 2 -24 16 -12 14 11 18 10 31 -6 8
-11 23 -36 32 -55 19 -42 248 -275 270 -275 25 0 121 -69 116 -82 -2 -7 3 -13
13 -13 10 0 35 -9 57 -20 22 -11 48 -20 58 -20 22 0 186 -57 202 -70 6 -5 133
-8 282 -7 234 2 273 4 289 18 11 9 60 30 109 47 102 34 158 55 165 62 24 24
121 80 138 80 23 0 115 77 107 89 -2 4 9 15 25 24 40 24 110 107 198 237 2 2
7 -2 12 -10 5 -8 11 -12 13 -10 7 9 41 105 42 120 2 26 38 114 57 139 9 12 20
37 22 55 22 146 31 186 43 186 10 0 13 45 12 210 -1 164 -4 210 -14 210 -10 0
-29 49 -21 57 1 1 56 -35 123 -80 118 -80 122 -84 157 -155 l36 -72 2581 0
2581 0 316 136 c175 75 326 142 338 149 12 8 36 54 60 114 l39 101 162 0 c108
0 163 -4 163 -11 0 -5 -9 -31 -21 -56 -11 -25 -18 -52 -15 -60 8 -21 -14 -106
-31 -120 -12 -9 -13 -48 -10 -225 2 -122 9 -232 16 -258 7 -25 15 -72 18 -104
4 -43 15 -75 39 -115 18 -30 36 -67 39 -83 4 -15 36 -70 73 -123 37 -53 85
-125 107 -160 22 -36 45 -63 51 -61 6 2 38 -22 70 -55 125 -127 303 -224 509
-280 338 -90 640 -47 945 137 44 27 94 56 111 66 37 20 71 49 64 56 -3 3 30
42 73 86 42 45 95 108 117 142 22 33 46 59 53 56 6 -2 12 2 12 10 0 7 7 26 15
41 8 16 19 45 25 66 5 20 25 63 45 95 20 34 35 72 35 90 0 18 9 72 20 122 16
72 20 127 20 292 0 111 -4 202 -9 202 -11 0 -31 78 -31 122 0 19 -9 51 -20 73
-11 22 -20 45 -20 52 0 7 -4 13 -8 13 -5 0 -14 12 -21 26 -11 24 -10 26 6 18
10 -5 244 -10 520 -12 484 -3 504 -2 548 17 l45 20 0 685 c0 679 0 686 20 686
19 0 20 7 20 90 0 81 -2 90 -19 90 -13 0 -20 9 -24 35 -8 50 -60 154 -100 200
-20 22 -71 60 -116 85 l-81 45 0 85 c0 47 -9 177 -20 290 -19 197 -20 282 -20
2226 l0 2020 21 63 c18 53 19 65 8 76 -20 18 -51 25 -74 15z m-12305 -6237 c0
-5 -5 -15 -10 -23 -8 -12 -10 -11 -10 8 0 12 5 22 10 22 6 0 10 -3 10 -7z
m11445 -90 c117 -20 199 -27 369 -32 162 -4 220 -9 224 -18 7 -23 -384 -17
-575 8 -148 20 -166 25 -195 50 l-33 28 30 -5 c17 -2 98 -16 180 -31z"/>
</g>
</svg>
