<!-- icon666.com - MILLIONS vector ICONS FREE --><svg viewBox="0 -70 512 511" xmlns="http://www.w3.org/2000/svg"><path d="m91.070312 39.191406h-25.453124v-18.78125c0-7.027344 5.695312-12.726562 12.726562-12.726562 7.027344 0 12.726562 5.699218 12.726562 12.726562zm0 0" fill="#787680"></path><path d="m65.617188 16.699219h-54.457032c-1.550781 1.554687-2.421875 2.425781-3.976562 3.980469v18.511718h58.433594zm0 0" fill="#c6c5ca"></path><path d="m91.070312 16.699219h54.453126c1.554687 1.554687 2.425781 2.425781 3.980468 3.980469v18.511718h-58.433594zm0 0" fill="#c6c5ca"></path><path d="m95.3125 70.425781h299.824219v28.738281h-299.824219zm0 0" fill="#787680"></path><path d="m165.5 204.777344h159.445312v159.445312h-159.445312zm0 0" fill="#ffb655"></path><path d="m285.644531 254.820312v-50.042968h-42.527343v50.042968l21.265624-13.410156zm0 0" fill="#ff8243"></path><path d="m266.488281 254.820312v-50.042968h-42.527343v50.042968l21.261718-13.410156zm0 0" fill="#fff5cc"></path><path d="m296.898438 156.15625h-103.351563c-6.746094-5.707031-11.101563-9.394531-17.851563-15.105469l-7.039062-41.886719h153.132812l-7.035156 41.886719c-6.75 5.710938-11.105468 9.398438-17.855468 15.105469zm0 0" fill="#c6c5ca"></path><path d="m318.503906 70.425781h-146.558594l18.675782-27.941406h109.203125zm0 0" fill="#c6c5ca"></path><path d="m193.546875 156.15625c-6.746094-5.707031-11.101563-9.394531-17.851563-15.105469l-.917968-5.445312-42.90625 42.910156v114.480469c7.480468 7.480468 11.675781 11.675781 19.160156 19.15625h14.367188v-119.75l36.246093-36.246094zm0 0" fill="#787680"></path><path d="m315.667969 135.605469-.914063 5.445312c-6.75 5.710938-11.105468 9.394531-17.855468 15.105469h-8.09375l36.242187 36.246094v119.75h14.371094c7.480469-7.480469 11.675781-11.675782 19.15625-19.15625v-114.480469zm0 0" fill="#787680"></path><path d="m84.089844 118.320312h-11.492188c-4.382812-4.382812-6.839844-6.839843-11.222656-11.222656v-43.378906h33.9375v43.378906c-4.382812 4.382813-6.839844 6.839844-11.222656 11.222656zm0 0" fill="#c6c5ca"></path><path d="m399.378906 39.191406h25.453125v-18.78125c0-7.027344-5.699219-12.726562-12.726562-12.726562-7.03125 0-12.726563 5.699218-12.726563 12.726562zm0 0" fill="#787680"></path><path d="m424.832031 16.699219h54.453125c1.554688 1.554687 2.425782 2.425781 3.976563 3.980469v18.511718h-58.429688zm0 0" fill="#c6c5ca"></path><path d="m399.378906 16.699219h-54.457031c-1.550781 1.554687-2.425781 2.425781-3.976563 3.980469v18.511718h58.433594zm0 0" fill="#c6c5ca"></path><path d="m406.355469 118.320312h11.496093c4.382813-4.382812 6.839844-6.839843 11.222657-11.222656v-43.378906h-33.9375v43.378906c4.382812 4.382813 6.835937 6.839844 11.21875 11.222656zm0 0" fill="#c6c5ca"></path><g fill="#898890"><path d="m424.832031 16.699219h54.453125c1.554688 1.554687 2.425782 2.425781 3.976563 3.980469v18.511718h-58.429688zm0 0"></path><path d="m399.378906 16.699219h-54.457031c-1.550781 1.554687-2.425781 2.425781-3.976563 3.980469v18.511718h58.433594zm0 0"></path><path d="m39.898438 16.699219h-28.738282l-3.976562 3.980469v18.511718h28.738281v-18.511718zm0 0"></path><path d="m91.070312 16.699219h28.738282v22.492187h-28.738282zm0 0"></path></g><path d="m95.3125 70.425781h28.734375v28.738281h-28.734375zm0 0" fill="#57565c"></path><path d="m165.5 204.777344h28.734375v159.445312h-28.734375zm0 0" fill="#ff8243"></path><path d="m243.117188 204.777344h-19.15625v50.042968l19.15625-12.082031zm0 0" fill="#ffc477"></path><path d="m197.394531 99.164062h-28.738281l7.039062 41.886719c6.75 5.710938 11.101563 9.394531 17.851563 15.105469h28.738281c-6.75-5.707031-11.105468-9.394531-17.855468-15.105469zm0 0" fill="#898890"></path><path d="m190.621094 42.484375-18.675782 27.941406h28.734376l18.679687-27.941406zm0 0" fill="#898890"></path><path d="m151.03125 292.996094v-114.480469l31.597656-31.597656c-2.140625-1.8125-4.363281-3.691407-6.933594-5.867188l-.914062-5.445312-42.910156 42.910156v114.480469l19.160156 19.15625h14.367188v-4.789063zm0 0" fill="#57565c"></path><path d="m344.207031 192.402344-36.246093-36.246094h8.097656c4.179687-3.535156 7.4375-6.292969 10.921875-9.238281l-11.3125-11.3125-.914063 5.445312c-6.75 5.710938-11.105468 9.394531-17.855468 15.105469h-8.09375l36.242187 36.246094v119.75h14.371094l4.789062-4.789063zm0 0" fill="#57565c"></path><path d="m75.742188 107.097656v-43.378906h-14.367188v43.378906l11.222656 11.222656h11.492188l1.4375-1.4375zm0 0" fill="#898890"></path><path d="m453.566406 16.699219h54.457032c1.550781 1.554687 2.421874 2.425781 3.976562 3.980469v18.511718h-58.433594zm0 0" fill="#898890"></path><path d="m428.113281 16.699219h-54.453125c-1.554687 1.554687-2.425781 2.425781-3.976562 3.980469v18.511718h58.429687zm0 0" fill="#898890"></path><path d="m409.503906 107.097656v-43.378906h-14.367187v43.378906c4.382812 4.382813 6.835937 6.839844 11.21875 11.222656h11.496093l1.4375-1.4375c-3.535156-3.53125-5.90625-5.902343-9.785156-9.785156zm0 0" fill="#898890"></path><path d="m85.527344 46.375h71.160156v-28.675781l-8.1875-8.183594h-53.496094c-3.5625-5.425781-9.699218-9.015625-16.660156-9.015625s-13.097656 3.589844-16.660156 9.015625h-53.5l-8.183594 8.183594v28.675781h71.160156v10.160156h-16.96875v53.539063l15.429688 15.429687h17.445312l15.429688-15.429687v-53.539063h-16.96875zm56.789062-14.367188h-44.0625v-8.121093h44.0625zm-63.972656-17.140624c3.054688 0 5.542969 2.488281 5.542969 5.542968v11.597656h-11.085938v-11.597656c0-3.054687 2.488281-5.542968 5.542969-5.542968zm-19.910156 17.140624h-44.066406v-8.121093h44.066406zm29.695312 72.117188-7.011718 7.011719h-5.546876l-7.011718-7.011719v-33.222656h19.570312zm0 0"></path><path d="m114.46875 106.347656h48.109375l6.46875 38.492188 21.871094 18.503906h108.613281l21.871094-18.503906 6.464844-38.492188h48.109374v-14.371094h-261.507812zm193.636719 30.921875-13.839844 11.703125h-98.085937l-13.835938-11.703125-5.195312-30.921875h136.148437zm0 0"></path><path d="m317.765625 357.039062h-145.082031v-25.730468h-14.367188v40.101562h173.816406v-40.101562h-14.367187zm0 0"></path><path d="m245.222656 249.90625 28.449219 17.941406v-55.886718h32.117187v-14.371094h-121.132812v14.371094h32.117188v55.886718zm14.082032-37.945312v29.835937l-14.082032-8.878906-14.078125 8.878906v-29.835937zm0 0"></path><path d="m303.664062 35.300781h-116.878906l-18.679687 27.941407h-53.636719v14.367187h261.507812v-14.367187h-53.636718zm-109.203124 14.371094h101.523437l9.074219 13.570313h-119.667969zm0 0"></path><path d="m490.445312 46.375v-28.675781l-8.183593-8.183594h-53.5c-3.558594-5.425781-9.695313-9.015625-16.65625-9.015625-6.960938 0-13.101563 3.589844-16.660157 9.015625h-53.5l-8.183593 8.183594v28.675781h71.15625v10.160156h-16.964844v53.539063l15.425781 15.429687h17.449219l15.425781-15.429687v-53.539063h-16.964844v-10.160156zm-68.558593 57.75-7.011719 7.011719h-5.542969l-7.011719-7.011719v-33.222656h19.570313v33.222656zm54.191406-72.117188h-44.0625v-8.121093h44.0625zm-63.972656-17.140624c3.054687 0 5.539062 2.488281 5.539062 5.542968v11.597656h-11.082031v-11.597656c0-3.054687 2.484375-5.542968 5.542969-5.542968zm-19.914063 17.140624h-44.0625v-8.121093h44.0625zm0 0"></path><path d="m326.710938 156.8125 24.679687 24.679688v108.527343l-14.949219 14.949219h-4.207031v-115.542969l-21.046875-21.042969-10.160156 10.15625 16.835937 16.839844v123.957032h24.53125l23.363281-23.367188v-120.429688l-28.886718-28.886718zm0 0"></path><path d="m172.582031 195.378906 16.835938-16.839844-10.160157-10.15625-21.042968 21.042969v115.542969h-4.210938l-14.949218-14.949219v-108.527343l24.679687-24.679688-10.160156-10.160156-28.886719 28.886718v120.429688l23.367188 23.367188h24.527343zm0 0"></path><path d="m299.824219 130.292969h-36.402344v-14.367188h36.402344zm-45.980469 0h-14.367188v-14.367188h14.367188zm-23.945312 0h-14.371094v-14.367188h14.371094zm0 0" fill="#fff"></path><path d="m308.183594 346.597656h-14.367188v-36.675781h14.367188zm0-46.253906h-14.367188v-14.367188h14.367188zm0-23.945312h-14.367188v-14.371094h14.367188zm0 0" fill="#fff"></path></svg>