<!-- icon666.com - MILLIONS vector ICONS FREE --><svg id="Capa_1" enable-background="new 0 0 498.02 498.02" viewBox="0 0 498.02 498.02" xmlns="http://www.w3.org/2000/svg"><g><g><path d="m489.435 400.001c4.714-5.539 7.565-12.714 7.565-20.558 0-17.532-14.212-31.744-31.745-31.744-16.504 0-30.061 12.595-31.595 28.697-1.589-.295-3.224-.457-4.898-.457-10.716 0-19.951 6.319-24.198 15.43-3.563-4.091-8.796-6.689-14.647-6.689-5.914 0-11.2 2.651-14.764 6.818-4.723-7.509-13.077-12.503-22.603-12.503-12.12 0-22.344 8.082-25.598 19.149-34.218-27.315-45.752-183.153-45.752-183.153h-56.939s-13.192 162.21-53.216 188.577c-1.081-13.749-12.568-24.572-26.594-24.572-9.526 0-17.88 4.994-22.603 12.503-3.564-4.168-8.851-6.818-14.764-6.818-5.851 0-11.084 2.598-14.647 6.689-4.247-9.112-13.482-15.43-24.198-15.43-1.674 0-3.309.162-4.898.457-1.534-16.102-15.092-28.697-31.596-28.697-17.533-.001-31.745 14.212-31.745 31.744 0 7.844 2.851 15.018 7.565 20.558-4.634 4.054-7.565 10.007-7.565 16.649 0 12.216 9.903 22.12 22.12 22.12h452.76c12.217 0 22.12-9.903 22.12-22.12 0-6.642-2.931-12.595-7.565-16.65z" fill="#ec9257"></path></g><g><path d="m313.87 380.449c.082-.028.164-.056.247-.084-24.33-49.383-32.916-165.375-32.916-165.375h-30s6.865 92.753 25.714 147.687c5.218 15.208 21.752 23.005 36.955 17.772z" fill="#eb8949"></path></g><g><path d="m489.435 400.001c5.153-6.055 8.08-14.064 7.49-22.766-1.077-15.888-14.12-28.687-30.024-29.494-6.039-.306-11.724 1.085-16.639 3.725 9.963 5.356 16.738 15.874 16.738 27.978 0 3.579-.594 7.019-1.687 10.228-2.095 6.147-2.214 12.856.163 18.899.984 2.503 1.524 5.228 1.524 8.08 0 12.216-9.903 22.12-22.12 22.12h29.491c12.03 0 22.245-9.392 22.618-21.417.215-6.924-2.757-13.156-7.554-17.353z" fill="#eb8949"></path></g><g><path d="m455.468 145.771c.01-.429.033-.855.033-1.286 0-29.981-24.304-54.285-54.285-54.285-10.581 0-20.447 3.038-28.795 8.274-5.702-17.812-22.388-30.711-42.092-30.711-13.378 0-25.359 5.953-33.464 15.345-10.853-14.484-28.154-23.858-47.647-23.858-19.492 0-36.794 9.374-47.647 23.858-8.104-9.392-20.085-15.345-33.463-15.345-18.529 0-34.385 11.408-40.953 27.579-7.002-3.292-14.817-5.141-23.066-5.141-29.981 0-54.285 24.304-54.285 54.285 0 .431.022.857.033 1.286-24.338 5.364-42.552 27.048-42.552 52.998 0 .474.024.956.036 1.427.752 29.325 24.742 52.858 54.249 52.858 8.017 0 15.62-1.752 22.469-4.872 8.072 13.609 22.903 22.738 39.874 22.738 19.175 0 35.629-11.648 42.674-28.255 4.658 1.573 9.641 2.439 14.83 2.439 13.388 0 25.442-5.685 33.9-14.764 2.036 2.186 4.352 4.226 6.773 5.986 0 0 16.245-1.066 26.409-1.066 9.457 0 19.501-1.194 26.832-6.058 2.754 2.959 8.794 15.917 8.794 15.917 7.126 4.476 15.556 7.066 24.593 7.066 9.009 0 17.412-2.58 24.526-7.029 9.135 17.113 27.161 28.764 47.915 28.764 18.686 0 35.164-9.443 44.93-23.815 5.534 1.902 11.465 2.949 17.645 2.949 29.981 0 54.285-24.304 54.285-54.285 0-11.72-3.714-22.549-10.031-31.418-7.669-10.769-19.174-18.639-32.52-21.581z" fill="#efc277"></path></g><g><path d="m447.613 116.293c-.675-1.108-1.399-2.181-2.149-3.235.012.476.036.949.036 1.427 0 .431-.023.857-.033 1.286.722.159 1.437.335 2.146.522z" fill="#f2aa62"></path></g><g><path d="m487.989 167.352c.012.472.031.943.031 1.418 0 29.981-24.304 54.285-54.285 54.285-1.583 0-3.149-.069-4.697-.203-7.812-.677-15.647 1.776-21.46 7.038-9.63 8.719-22.403 14.031-36.417 14.031-14.603 0-27.855-5.768-37.609-15.148-6.805-6.544-16.382-9.372-25.636-7.503-2.972.6-6.047.915-9.196.915-8.393 0-16.261-2.234-23.048-6.137-6.949-3.996-15.202-5.322-22.866-2.972-4.296 1.318-8.859 2.028-13.587 2.028-7.492 0-14.566-1.78-20.826-4.939-8.23-4.153-17.92-4.153-26.15 0-6.26 3.159-13.334 4.939-20.826 4.939-.081 0-.162 0-.242-.001-8.622-.045-16.773 3.612-22.47 10.084-8.491 9.646-20.93 15.732-34.79 15.732-11.707 0-22.395-4.344-30.549-11.506-6.552-5.755-15.27-8.2-23.899-6.934-2.577.378-5.213.574-7.895.574-18.265 0-34.41-9.029-44.249-22.858.759 29.319 24.747 52.858 54.249 52.858 8.017 0 15.62-1.752 22.47-4.872 8.072 13.609 22.903 22.738 39.874 22.738 19.175 0 35.629-11.648 42.674-28.255 4.657 1.573 9.641 2.439 14.829 2.439 13.388 0 25.442-5.685 33.9-14.764 8.459 9.079 20.513 14.764 33.901 14.764 9.458 0 18.248-2.84 25.58-7.704 8.46 9.091 20.523 14.785 33.921 14.785 9.009 0 17.412-2.58 24.526-7.029 9.134 17.114 27.161 28.764 47.915 28.764 18.685 0 35.164-9.443 44.93-23.815 6.905 2.373 14.43 3.415 22.282 2.753 26.8-2.26 48.125-24.246 49.568-51.102.688-12.854-3.11-24.787-9.953-34.403z" fill="#f2aa62"></path></g></g></svg>