<?xml version="1.0" standalone="no"?>
<!DOCTYPE svg PUBLIC "-//W3C//DTD SVG 20010904//EN"
 "http://www.w3.org/TR/2001/REC-SVG-20010904/DTD/svg10.dtd">
<svg version="1.0" xmlns="http://www.w3.org/2000/svg"
 width="1280.000000pt" height="640.000000pt" viewBox="0 0 1280.000000 640.000000"
 preserveAspectRatio="xMidYMid meet">
<metadata>
Created by potrace 1.15, written by Peter Selinger 2001-2017
</metadata>
<g transform="translate(0.000000,640.000000) scale(0.100000,-0.100000)"
fill="#000000" stroke="none">
<path d="M3220 5705 c-91 -17 -244 -47 -340 -65 -96 -18 -197 -38 -225 -44
l-50 -12 211 -175 c116 -96 497 -410 847 -699 349 -289 636 -528 636 -532 1
-12 -614 -10 -645 2 -20 8 -29 8 -35 -1 -5 -9 -50 -10 -179 -5 l-172 7 -491
293 -492 294 -48 -8 c-47 -7 -49 -6 -127 53 -44 32 -77 63 -74 68 3 5 -1 7 -8
4 -7 -2 -40 18 -73 45 -33 27 -112 88 -175 134 -63 47 -169 125 -235 175
l-120 90 -347 1 -347 0 45 -82 c24 -46 99 -191 165 -323 137 -272 471 -928
474 -933 3 -3 46 -10 72 -11 6 -1 -2 -15 -19 -33 -16 -17 -32 -44 -35 -60 -3
-15 -8 -28 -10 -28 -14 0 -172 124 -167 131 3 5 -1 7 -8 4 -7 -3 -24 5 -38 18
-14 12 -96 73 -183 135 l-158 112 -356 0 c-280 0 -354 -3 -350 -12 3 -7 164
-292 359 -633 283 -497 359 -621 378 -627 14 -5 45 -13 68 -19 35 -8 42 -14
37 -27 -48 -122 -68 -356 -42 -491 l15 -75 -216 -250 c-119 -138 -277 -321
-351 -406 -75 -86 -142 -163 -150 -173 -12 -16 -11 -21 11 -45 14 -15 39 -47
56 -72 66 -98 106 -120 217 -120 114 0 177 20 526 164 178 74 558 231 844 350
286 118 520 214 521 213 1 -1 -389 -243 -867 -537 -655 -403 -866 -537 -858
-546 7 -9 7 -19 0 -33 -10 -18 -6 -21 45 -36 133 -38 256 -67 350 -80 140 -20
314 -2 464 48 58 20 184 59 280 87 359 106 787 246 1315 430 205 71 978 358
1148 425 15 7 17 -1 17 -84 0 -50 3 -91 6 -91 3 0 58 41 122 90 l116 90 372 0
373 0 -29 -66 c-17 -36 -30 -70 -30 -75 0 -5 55 -9 123 -9 l123 0 65 86 64 86
330 -7 c222 -5 366 -3 440 5 108 11 223 35 237 49 4 4 -34 15 -85 25 -86 17
-240 50 -297 63 l-25 6 30 8 c17 5 111 23 210 39 194 32 291 55 407 96 70 25
188 80 188 88 0 2 -45 23 -100 47 -55 24 -99 46 -98 50 2 3 41 41 88 85 65 61
115 96 215 150 l130 71 105 -13 c243 -29 513 -6 793 68 42 11 77 22 77 23 0 2
-16 31 -34 64 -19 34 -32 61 -28 61 4 0 23 -5 42 -10 66 -19 220 -40 294 -40
126 0 170 12 371 100 195 86 176 83 587 69 286 -10 423 -10 685 0 283 10 578
29 718 46 352 41 519 67 740 116 282 62 644 177 630 199 -7 12 -236 140 -360
203 -209 104 -447 195 -624 238 -143 35 -457 99 -608 124 -143 24 -164 31
-218 70 -74 56 -202 106 -389 155 -61 16 -158 42 -215 59 -137 40 -268 67
-426 86 -109 14 -226 16 -720 14 l-590 -3 -255 53 c-289 59 -333 70 -665 156
l-240 62 -201 -5 -201 -5 -1569 627 c-863 344 -1580 626 -1594 625 -14 -1 -99
-16 -190 -34z"/>
</g>
</svg>
