<!-- icon666.com - MILLIONS vector ICONS FREE --><svg viewBox="0 0 415.94347 415" xmlns="http://www.w3.org/2000/svg"><path d="m369.359375 247.832031v76.160157l-25.519531-25.519532c-12.492188-12.460937-32.710938-12.460937-45.199219 0l-54.71875 54.71875c-.882813.878906-1.601563 1.679688-2.402344 2.640625h-67.039062c-.800781-.960937-1.519531-1.761719-2.402344-2.640625l-54.71875-54.71875c-12.488281-12.460937-32.707031-12.460937-45.199219 0l-24.160156 24.160156v-74.800781l32-32h257.359375c12.480469 12.480469 19.441406 19.519531 32 32zm0 0" fill="#a78966"></path><path d="m245.28125 363.832031h-74.5625l-2.398438-2.886719c-.632812-.800781-1.199218-1.394531-1.894531-2.097656l-54.722656-54.71875c-9.484375-9.050781-24.402344-9.050781-33.886719 0l-37.816406 37.816406v-97.425781l36.6875-36.6875h264l14.65625 14.671875c6.175781 6.191406 11.832031 11.863282 19.671875 19.648438l2.398437 2.351562v98.800782l-39.199218-39.199219c-9.484375-9.050781-24.402344-9.050781-33.886719 0l-54.71875 54.71875c-.699219.703125-1.265625 1.328125-1.898437 2.09375zm-67.25-16h59.9375l55.015625-55.015625c15.613281-15.585937 40.898437-15.585937 56.511719 0l11.863281 11.855469v-53.511719c-6.671875-6.632812-11.808594-11.785156-17.359375-17.359375l-9.960938-9.96875h-250.726562l-27.3125 27.3125v52.175781l10.496094-10.503906c15.617187-15.589844 40.90625-15.589844 56.519531 0zm0 0" fill="#00554b"></path><path d="m174.480469 355.832031c-.800781-.960937-1.519531-1.761719-2.402344-2.640625l-54.71875-54.71875c-12.488281-12.460937-32.707031-12.460937-45.199219 0l-54.71875 54.71875c-9.164062 9.152344-11.90625 22.925782-6.949218 34.890625 4.957031 11.964844 16.636718 19.761719 29.585937 19.75h109.363281c12.3125.023438 23.546875-7.023437 28.890625-18.117187s3.84375-24.269532-3.851562-33.882813zm-128.71875 32.800781c-7.910157 0-14.320313-6.414062-14.320313-14.320312 0-7.910156 6.410156-14.320312 14.320313-14.320312 7.90625 0 14.316406 6.410156 14.316406 14.320312.007813 3.796875-1.5 7.441406-4.1875 10.128906s-6.332031 4.195313-10.128906 4.191406zm98.078125 0c-7.910156 0-14.320313-6.414062-14.320313-14.320312 0-7.910156 6.410157-14.320312 14.320313-14.320312s14.320312 6.410156 14.320312 14.320312c.003906 3.796875-1.503906 7.441406-4.191406 10.128906-2.683594 2.6875-6.328125 4.195313-10.128906 4.191406zm0 0" fill="#47821c"></path><path d="m149.441406 415.832031h-109.363281c-16.183594.007813-30.78125-9.738281-36.976563-24.691406-6.195312-14.953125-2.765624-32.164063 8.683594-43.605469l54.710938-54.71875c15.617187-15.589844 40.90625-15.589844 56.519531 0l54.71875 54.71875c1.074219 1.066406 1.9375 2.03125 2.898437 3.199219l.046876.058594c9.640624 12.003906 11.53125 28.476562 4.863281 42.355469-6.664063 13.878906-20.707031 22.703124-36.101563 22.683593zm-54.640625-118.71875c-6.371093-.023437-12.488281 2.5-16.984375 7.015625l-54.71875 54.71875c-6.878906 6.863282-8.9375 17.195313-5.214844 26.171875 3.71875 8.976563 12.480469 14.824219 22.195313 14.8125h109.363281c9.21875.023438 17.636719-5.238281 21.65625-13.535156 4.019532-8.296875 2.929688-18.164063-2.800781-25.386719-.625-.742187-1.183594-1.367187-1.871094-2.0625l-54.722656-54.71875c-4.472656-4.5-10.558594-7.027344-16.902344-7.015625zm49.039063 99.519531c-12.328125 0-22.320313-9.996093-22.320313-22.320312 0-12.328125 9.992188-22.320312 22.320313-22.320312s22.320312 9.992187 22.320312 22.320312c-.019531 12.320312-10 22.300781-22.320312 22.320312zm0-28.640624c-3.492188 0-6.320313 2.828124-6.320313 6.320312 0 3.488281 2.828125 6.320312 6.320313 6.320312 3.492187 0 6.320312-2.832031 6.320312-6.320312-.003906-3.488281-2.832031-6.316406-6.320312-6.320312zm-98.078125 28.640624c-12.328125 0-22.320313-9.996093-22.320313-22.320312 0-12.328125 9.992188-22.320312 22.320313-22.320312 12.324219 0 22.316406 9.992187 22.316406 22.320312-.015625 12.320312-10 22.300781-22.316406 22.320312zm0-28.640624c-3.492188 0-6.320313 2.828124-6.320313 6.320312 0 3.488281 2.828125 6.320312 6.320313 6.320312 3.488281 0 6.316406-2.832031 6.316406-6.320312 0-3.492188-2.828125-6.320312-6.316406-6.320312zm0 0" fill="#00554b"></path><path d="m45.761719 396.632812c-12.328125 0-22.320313-9.996093-22.320313-22.320312 0-12.328125 9.992188-22.320312 22.320313-22.320312 12.324219 0 22.316406 9.992187 22.316406 22.320312-.015625 12.320312-10 22.300781-22.316406 22.320312zm0-28.640624c-3.492188 0-6.320313 2.828124-6.320313 6.320312 0 3.488281 2.828125 6.320312 6.320313 6.320312 3.488281 0 6.316406-2.832031 6.316406-6.320312 0-3.492188-2.828125-6.320312-6.316406-6.320312zm0 0" fill="#00554b"></path><path d="m143.839844 396.632812c-12.328125 0-22.320313-9.996093-22.320313-22.320312 0-12.328125 9.992188-22.320312 22.320313-22.320312s22.320312 9.992187 22.320312 22.320312c-.019531 12.320312-10 22.300781-22.320312 22.320312zm0-28.640624c-3.492188 0-6.320313 2.828124-6.320313 6.320312 0 3.488281 2.828125 6.320312 6.320313 6.320312 3.492187 0 6.320312-2.832031 6.320312-6.320312-.003906-3.488281-2.832031-6.316406-6.320312-6.320312zm0 0" fill="#00554b"></path><path d="m398.558594 353.191406-54.71875-54.71875c-12.492188-12.460937-32.710938-12.460937-45.199219 0l-54.71875 54.71875c-.882813.878906-1.601563 1.679688-2.402344 2.640625-7.695312 9.613281-9.195312 22.789063-3.851562 33.882813s16.578125 18.140625 28.890625 18.117187h109.363281c12.949219.011719 24.628906-7.785156 29.585937-19.75 4.957032-11.964843 2.214844-25.738281-6.949218-34.890625zm-126.398438 35.441406c-7.910156 0-14.320312-6.414062-14.320312-14.320312 0-7.910156 6.410156-14.320312 14.320312-14.320312s14.320313 6.410156 14.320313 14.320312c-.023438 7.898438-6.421875 14.296875-14.320313 14.320312zm98.078125 0c-7.90625 0-14.316406-6.414062-14.316406-14.320312 0-7.910156 6.410156-14.320312 14.316406-14.320312 7.910157 0 14.320313 6.410156 14.320313 14.320312-.019532 7.898438-6.417969 14.296875-14.320313 14.320312zm0 0" fill="#47821c"></path><path d="m375.921875 415.832031h-109.363281c-15.402344.023438-29.449219-8.800781-36.117188-22.683593-6.667968-13.886719-4.769531-30.367188 4.878906-42.371094 1.007813-1.210938 1.871094-2.175782 2.945313-3.242188l54.71875-54.71875c15.613281-15.585937 40.898437-15.585937 56.511719 0l54.71875 54.71875c11.449218 11.441406 14.878906 28.652344 8.683594 43.605469-6.195313 14.953125-20.792969 24.699219-36.976563 24.691406zm-54.640625-118.71875c-6.371094-.023437-12.488281 2.503907-16.984375 7.015625l-54.722656 54.71875c-.695313.703125-1.261719 1.328125-1.894531 2.097656-5.714844 7.222657-6.789063 17.082032-2.765626 25.367188 4.023438 8.289062 12.433594 13.539062 21.644532 13.519531h109.363281c9.714844.011719 18.476563-5.835937 22.195313-14.8125 3.722656-8.976562 1.664062-19.308593-5.214844-26.171875l-54.71875-54.71875c-4.472656-4.503906-10.558594-7.027344-16.902344-7.015625zm48.957031 99.519531c-12.324219 0-22.316406-9.996093-22.316406-22.320312 0-12.328125 9.992187-22.320312 22.316406-22.320312 12.328125 0 22.320313 9.992187 22.320313 22.320312-.015625 12.320312-10 22.300781-22.320313 22.320312zm0-28.640624c-3.488281 0-6.316406 2.828124-6.316406 6.320312 0 3.488281 2.828125 6.320312 6.316406 6.320312 3.492188 0 6.320313-2.832031 6.320313-6.320312-.003906-3.488281-2.828125-6.316406-6.320313-6.320312zm-98.078125 28.640624c-12.328125 0-22.320312-9.996093-22.320312-22.320312 0-12.328125 9.992187-22.320312 22.320312-22.320312s22.320313 9.992187 22.320313 22.320312c-.015625 12.320312-10 22.304688-22.320313 22.320312zm0-28.640624c-3.492187 0-6.320312 2.828124-6.320312 6.320312 0 3.488281 2.828125 6.320312 6.320312 6.320312 3.492188 0 6.320313-2.832031 6.320313-6.320312 0-3.492188-2.828125-6.320312-6.320313-6.320312zm0 0" fill="#00554b"></path><path d="m272.160156 396.632812c-12.328125 0-22.320312-9.996093-22.320312-22.320312 0-12.328125 9.992187-22.320312 22.320312-22.320312s22.320313 9.992187 22.320313 22.320312c-.015625 12.320312-10 22.304688-22.320313 22.320312zm0-28.640624c-3.492187 0-6.320312 2.828124-6.320312 6.320312 0 3.488281 2.828125 6.320312 6.320312 6.320312 3.492188 0 6.320313-2.832031 6.320313-6.320312 0-3.492188-2.828125-6.320312-6.320313-6.320312zm0 0" fill="#00554b"></path><path d="m370.238281 396.632812c-12.324219 0-22.316406-9.996093-22.316406-22.320312 0-12.328125 9.992187-22.320312 22.316406-22.320312 12.328125 0 22.320313 9.992187 22.320313 22.320312-.015625 12.320312-10 22.300781-22.320313 22.320312zm0-28.640624c-3.488281 0-6.316406 2.828124-6.316406 6.320312 0 3.488281 2.828125 6.320312 6.316406 6.320312 3.492188 0 6.320313-2.832031 6.320313-6.320312-.003906-3.488281-2.828125-6.316406-6.320313-6.320312zm0 0" fill="#00554b"></path><path d="m369.335938 255.832031h-321.335938c-4.417969 0-8-3.582031-8-8s3.582031-8 8-8h321.335938c4.417968 0 8 3.582031 8 8s-3.582032 8-8 8zm0 0" fill="#00554b"></path><path d="m60.078125 374.3125c0 7.90625-6.410156 14.320312-14.316406 14.320312-7.910157 0-14.320313-6.414062-14.320313-14.320312 0-7.910156 6.410156-14.320312 14.320313-14.320312 7.898437.019531 14.296875 6.417968 14.316406 14.320312zm0 0" fill="#d9ccbc"></path><path d="m45.761719 396.632812c-12.328125 0-22.320313-9.996093-22.320313-22.320312 0-12.328125 9.992188-22.320312 22.320313-22.320312 12.324219 0 22.316406 9.992187 22.316406 22.320312-.015625 12.320312-10 22.300781-22.316406 22.320312zm0-28.640624c-3.492188 0-6.320313 2.828124-6.320313 6.320312 0 3.488281 2.828125 6.320312 6.320313 6.320312 3.488281 0 6.316406-2.832031 6.316406-6.320312 0-3.492188-2.828125-6.320312-6.316406-6.320312zm0 0" fill="#00554b"></path><path d="m158.160156 374.3125c0 7.90625-6.410156 14.320312-14.320312 14.320312s-14.320313-6.414062-14.320313-14.320312c0-7.910156 6.410157-14.320312 14.320313-14.320312 7.898437.019531 14.296875 6.417968 14.320312 14.320312zm0 0" fill="#d9ccbc"></path><path d="m143.839844 396.632812c-12.328125 0-22.320313-9.996093-22.320313-22.320312 0-12.328125 9.992188-22.320312 22.320313-22.320312s22.320312 9.992187 22.320312 22.320312c-.019531 12.320312-10 22.300781-22.320312 22.320312zm0-28.640624c-3.492188 0-6.320313 2.828124-6.320313 6.320312 0 3.488281 2.828125 6.320312 6.320313 6.320312 3.492187 0 6.320312-2.832031 6.320312-6.320312-.003906-3.488281-2.832031-6.316406-6.320312-6.320312zm0 0" fill="#00554b"></path><path d="m286.480469 374.3125c0 7.90625-6.410157 14.320312-14.320313 14.320312s-14.320312-6.414062-14.320312-14.320312c0-7.910156 6.410156-14.320312 14.320312-14.320312 3.800782-.003907 7.445313 1.503906 10.128906 4.1875 2.6875 2.6875 4.195313 6.332031 4.191407 10.132812zm0 0" fill="#d9ccbc"></path><path d="m272.160156 396.632812c-12.328125 0-22.320312-9.996093-22.320312-22.320312 0-12.328125 9.992187-22.320312 22.320312-22.320312s22.320313 9.992187 22.320313 22.320312c-.015625 12.320312-10 22.304688-22.320313 22.320312zm0-28.640624c-3.492187 0-6.320312 2.828124-6.320312 6.320312 0 3.488281 2.828125 6.320312 6.320312 6.320312 3.492188 0 6.320313-2.832031 6.320313-6.320312 0-3.492188-2.828125-6.320312-6.320313-6.320312zm0 0" fill="#00554b"></path><path d="m384.558594 374.3125c0 7.90625-6.410156 14.320312-14.320313 14.320312-7.90625 0-14.316406-6.414062-14.316406-14.320312 0-7.910156 6.410156-14.320312 14.316406-14.320312 3.800781-.003907 7.445313 1.503906 10.132813 4.1875 2.6875 2.6875 4.191406 6.332031 4.1875 10.132812zm0 0" fill="#d9ccbc"></path><path d="m370.238281 396.632812c-12.324219 0-22.316406-9.996093-22.316406-22.320312 0-12.328125 9.992187-22.320312 22.316406-22.320312 12.328125 0 22.320313 9.992187 22.320313 22.320312-.015625 12.320312-10 22.300781-22.320313 22.320312zm0-28.640624c-3.488281 0-6.316406 2.828124-6.316406 6.320312 0 3.488281 2.828125 6.320312 6.316406 6.320312 3.492188 0 6.320313-2.832031 6.320313-6.320312-.003906-3.488281-2.828125-6.316406-6.320313-6.320312zm0 0" fill="#00554b"></path><path d="m326 297.128906h-231.199219c-4.417969 0-8-3.582031-8-8 0-4.417968 3.582031-8 8-8h231.199219c4.417969 0 8 3.582032 8 8 0 4.417969-3.582031 8-8 8zm0 0" fill="#00554b"></path><path d="m170 122.832031h-122c-4.417969 0-8-3.582031-8-8s3.582031-8 8-8h122c4.417969 0 8 3.582031 8 8s-3.582031 8-8 8zm0 0" fill="#00554b"></path><path d="m190.664062 87.832031-20.664062 27h-34.664062v67h141.328124v-94.496093zm0 0" fill="#d9ccbc"></path><path d="m276.664062 189.832031h-141.328124c-4.417969 0-8-3.582031-8-8v-67c0-4.417969 3.582031-8 8-8h30.710937l18.265625-23.855469c1.5-1.96875 3.828125-3.128906 6.304688-3.144531l86-.496093h.046874c4.417969 0 8 3.582031 8 8v94.496093c0 4.417969-3.582031 8-8 8zm-133.328124-16h125.328124v-78.457031l-74.03125.457031-18.28125 23.878907c-1.511718 1.980468-3.859374 3.144531-6.351562 3.144531h-26.664062zm0 0" fill="#00554b"></path><path d="m184.601562 181.832031h58.398438v34h-58.398438zm0 0" fill="#a78966"></path><path d="m251 223.832031h-74.398438v-50h74.398438zm-58.398438-16h42.398438v-18h-42.398438zm0 0" fill="#00554b"></path><path d="m276.664062 121.167969v-33.832031h-42.167968v-35.007813c.003906-24.578125 19.929687-44.496094 44.503906-44.496094s44.496094 19.921875 44.496094 44.496094v68.839844zm0 0" fill="#d9ccbc"></path><g fill="#00554b"><path d="m323.496094 129.167969h-46.832032c-4.417968 0-8-3.582031-8-8v-25.832031h-34.167968c-4.417969 0-8-3.582032-8-8v-35.007813c.355468-28.742187 23.753906-51.855469 52.5-51.855469s52.144531 23.113282 52.5 51.855469v68.839844c0 4.417969-3.582032 8-8 8zm-38.832032-16h30.832032v-60.839844c-.296875-19.949219-16.550782-35.964844-36.5-35.964844-19.949219 0-36.203125 16.015625-36.5 35.964844v27.007813h34.167968c4.417969 0 8 3.582031 8 8zm0 0"></path><path d="m276.664062 95.335938c-4.417968 0-8-3.582032-8-8v-26.0625c-.011718-9.351563-7.585937-16.929688-16.9375-16.945313h-14.238281c-4.417969 0-8-3.582031-8-8s3.582031-8 8-8h14.238281c18.183594.023437 32.917969 14.757813 32.9375 32.945313v26.0625c0 4.417968-3.582031 8-8 8zm0 0"></path><path d="m323.496094 95.335938h-44.496094c-4.417969 0-8-3.582032-8-8 0-4.417969 3.582031-8 8-8h44.496094c4.417968 0 8 3.582031 8 8 0 4.417968-3.582032 8-8 8zm0 0"></path><path d="m254.265625 69.832031h-16.800781c-4.417969 0-8-3.582031-8-8s3.582031-8 8-8h16.800781c4.417969 0 8 3.582031 8 8s-3.582031 8-8 8zm0 0"></path><path d="m210.398438 147.832031h-40.398438c-4.417969 0-8-3.582031-8-8v-25c0-4.417969 3.582031-8 8-8s8 3.582031 8 8v17h32.398438c4.417968 0 8 3.582031 8 8s-3.582032 8-8 8zm0 0"></path><path d="m206 297.128906c-3.234375 0-6.152344-1.949218-7.390625-4.941406-1.238281-2.988281-.550781-6.429688 1.734375-8.714844l40.585938-40.585937c3.132812-3.121094 8.203124-3.117188 11.328124.015625 3.121094 3.132812 3.113282 8.207031-.019531 11.328125l-40.582031 40.585937c-1.503906 1.488282-3.539062 2.320313-5.65625 2.3125zm0 0"></path></g><path d="m8 98.832031h38v32h-38zm0 0" fill="#ff0c38"></path><path d="m46 138.832031h-38c-4.417969 0-8-3.582031-8-8v-32c0-4.417969 3.582031-8 8-8h38c4.417969 0 8 3.582031 8 8v32c0 4.417969-3.582031 8-8 8zm-30-16h22v-16h-22zm0 0" fill="#00554b"></path><path d="m254.273438 121.167969h84.328124v60.664062h-84.328124zm0 0" fill="#ff0c38"></path><path d="m338.59375 189.832031h-84.328125c-4.417969 0-8-3.582031-8-8v-60.664062c0-4.417969 3.582031-8 8-8h84.328125c4.417969 0 8 3.582031 8 8v60.664062c0 4.417969-3.582031 8-8 8zm-76.328125-16h68.328125v-44.664062h-68.328125zm0 0" fill="#00554b"></path></svg>