<!-- icon666.com - MILLIONS vector ICONS FREE --><svg id="Capa_1" enable-background="new 0 0 511.965 511.965" viewBox="0 0 511.965 511.965" xmlns="http://www.w3.org/2000/svg"><g><g><path d="m102.922 435.502c-4.761 8.423-7.263 17.935-7.263 27.611v22c0 7.142 8.635 10.718 13.684 5.668l98.542-98.542-8.016-128.259z" fill="#c8c5c9"></path><path d="m409.043 435.501-96.948-171.521-8.016 128.259 98.542 98.542c5.05 5.05 13.684 1.473 13.684-5.668v-22.001c.001-9.677-2.501-19.188-7.262-27.611z" fill="#dad8db"></path><path d="m223.918 400.255-14.787 59.149c-.632 2.53 1.281 4.98 3.888 4.98h21.798c2.608 0 4.521-2.451 3.888-4.98z" fill="#b6b1b7"></path><path d="m288.047 400.255-14.787 59.149c-.632 2.53 1.281 4.98 3.888 4.98h21.798c2.608 0 4.521-2.451 3.888-4.98z" fill="#b6b1b7"></path><path d="m261.391 9.607c-2.989-2.856-7.828-2.856-10.817 0-50.705 48.439-50.705 123.363-50.705 123.363v291.334c0 4.427 3.589 8.016 8.016 8.016h96.194c4.427 0 8.016-3.589 8.016-8.016v-291.335s0-74.923-50.704-123.362z" fill="#eceaec"></path><path d="m255.982 408.271c-17.71 0-32.065-14.356-32.065-32.065v-267.285s.099-55.168 32.159-101.438c-1.988-.023-3.983.673-5.502 2.124-50.705 48.439-50.705 123.363-50.705 123.363v291.334c0 4.427 3.589 8.016 8.016 8.016h96.194c4.427 0 8.016-3.589 8.016-8.016v-16.032h-56.113z" fill="#dad8db"></path><path d="m199.869 132.969v18.784h112.226v-18.784s-.018-5.048-.888-13.28h-110.449c-.871 8.232-.889 13.28-.889 13.28z" fill="#c8c5c9"></path><path d="m223.918 151.754v-32.065h-23.16c-.871 8.232-.889 13.28-.889 13.28v18.784h24.049z" fill="#b6b1b7"></path></g><path d="m415.572 431.811-95.976-169.804v-129.038c0-3.19-.603-78.707-53.024-128.786-5.839-5.577-15.34-5.578-21.179 0-52.421 50.079-53.024 125.595-53.024 128.786v129.038l-95.976 169.804c-5.387 9.53-8.234 20.354-8.234 31.301v41.353c0 3.034 1.827 5.768 4.63 6.929.928.384 1.902.571 2.869.571 1.952 0 3.87-.762 5.305-2.197l91.407-91.407v5.942c0 8.026 6.125 14.647 13.947 15.437l-5.706 22.825c-.561 2.24-.057 4.614 1.364 6.435s3.602 2.884 5.912 2.884h32.065c2.31 0 4.49-1.064 5.912-2.884s1.925-4.194 1.364-6.435l-5.686-22.746h28.885l-5.686 22.746c-.561 2.24-.057 4.614 1.364 6.435s3.602 2.884 5.912 2.884h32.065c2.31 0 4.49-1.064 5.912-2.884s1.925-4.194 1.364-6.435l-5.706-22.825c7.821-.789 13.947-7.411 13.947-15.437v-5.942l91.407 91.407c1.435 1.435 3.353 2.197 5.305 2.197.966 0 1.941-.187 2.869-.571 2.803-1.161 4.63-3.896 4.63-6.929v-41.353c-.004-10.948-2.852-21.771-8.238-31.301zm-208.203-298.842c0-.119.017-2.199.261-5.78h16.286c4.142 0 7.5-3.358 7.5-7.5s-3.358-7.5-7.5-7.5h-14.624c.757-5.058 1.811-10.823 3.282-17.064h86.779c1.474 6.24 2.531 12.006 3.293 17.064h-46.661c-4.142 0-7.5 3.358-7.5 7.5s3.358 7.5 7.5 7.5h48.34c.25 3.581.27 5.662.271 5.78v11.284h-97.227zm48.385-117.939c.09-.086.366-.085.456 0 20.369 19.459 32.16 43.675 38.99 65.095h-78.478c6.824-21.398 18.622-45.597 39.032-65.095zm-152.595 471.328v-23.246c0-8.366 2.176-16.638 6.292-23.92l82.917-146.7v104.657zm127.185-29.474h-12.853l4.266-17.064h4.321zm51.277 0 4.266-17.064h4.321l4.266 17.064zm127.185 29.474-89.21-89.21v-12.924c0-4.142-3.358-7.5-7.5-7.5s-7.5 3.358-7.5 7.5v40.079c0 .285-.231.516-.516.516h-96.194c-.285 0-.516-.231-.516-.516v-265.05h97.227v192.902c0 4.142 3.358 7.5 7.5 7.5s7.5-3.358 7.5-7.5v-59.664l82.917 146.7c4.117 7.283 6.292 15.554 6.292 23.92z"></path></g></svg>