<?xml version="1.0" encoding="UTF-8" standalone="no"?>
<!-- Created with Inkscape (http://www.inkscape.org/) -->

<svg
   width="512mm"
   height="512mm"
   viewBox="0 0 512 512"
   version="1.1"
   id="svg1"
   inkscape:version="1.3.2 (091e20ef0f, 2023-11-25, custom)"
   sodipodi:docname="settlement_destroyed.svg"
   xmlns:inkscape="http://www.inkscape.org/namespaces/inkscape"
   xmlns:sodipodi="http://sodipodi.sourceforge.net/DTD/sodipodi-0.dtd"
   xmlns="http://www.w3.org/2000/svg"
   xmlns:svg="http://www.w3.org/2000/svg">
  <sodipodi:namedview
     id="namedview1"
     pagecolor="#ffffff"
     bordercolor="#cccccc"
     borderopacity="1"
     inkscape:showpageshadow="0"
     inkscape:pageopacity="1"
     inkscape:pagecheckerboard="0"
     inkscape:deskcolor="#d1d1d1"
     inkscape:document-units="mm"
     inkscape:zoom="0.30556257"
     inkscape:cx="790.34549"
     inkscape:cy="814.89038"
     inkscape:window-width="1280"
     inkscape:window-height="952"
     inkscape:window-x="0"
     inkscape:window-y="0"
     inkscape:window-maximized="1"
     inkscape:current-layer="layer1" />
  <defs
     id="defs1" />
  <g
     inkscape:label="Layer 1"
     inkscape:groupmode="layer"
     id="layer1">
    <path
       style="fill:none;stroke:#000000;stroke-width:30;stroke-linecap:butt;stroke-linejoin:miter;stroke-opacity:0.79699248;stroke-dasharray:none"
       d="m 235.52186,331.63557 c 23.8402,-33.11138 -6.20195,9.82882 12.98834,-21.21429 2.88459,-4.66624 6.42237,-8.89693 9.52478,-13.42128 0.36499,-0.53229 0.57726,-1.15454 0.86589,-1.73178 0.14432,-0.28863 0.3131,-0.56628 0.43295,-0.8659 0.16949,-0.4237 0.2417,-0.88447 0.43294,-1.29881 0.67615,-1.465 1.70109,-2.78403 2.16472,-4.32946 0.41676,-1.38919 0.22784,-2.89367 0.43295,-4.32945 0.0841,-0.58905 0.24478,-1.16729 0.43294,-1.73178 0.56128,-1.68381 0.60872,-0.0259 0.86589,-2.59765 0.32478,-3.24784 -0.52748,-4.5896 -1.29883,-8.22595 -0.61078,-2.87941 -1.29515,-5.74802 -1.73178,-8.6589 -2.5082,-16.72134 1.34022,-1.17466 -3.46356,-15.58601 -0.80868,-2.42604 -0.88873,-5.14387 -2.16472,-7.36006 -0.83554,-1.45119 -7.37595,-8.73096 -9.95772,-10.39067 -2.60646,-1.67557 -5.58411,-2.71025 -8.22595,-4.32944 -1.84565,-1.13121 -3.47953,-2.57665 -5.19534,-3.8965 -0.16177,-0.12444 -0.22956,-0.416 -0.43294,-0.43295 -1.58198,-0.13183 -3.32774,-0.67957 -4.76239,0 -2.85156,1.35074 -5.40037,7.59753 -6.06123,9.95773 -1.47754,5.27692 0.53491,11.61316 5.19534,14.72011 2.36524,1.57684 5.19012,2.32083 7.793,3.46356 3.31408,1.45496 6.63984,2.88319 9.95773,4.32945 2.31039,1.00709 4.47376,2.45335 6.92711,3.03061 2.53251,0.59588 5.27386,1.08304 7.793,0.43294 2.20943,-0.57017 3.86225,-2.45156 5.62828,-3.8965 2.97935,-2.43765 4.36095,-3.92016 5.62828,-7.36006 1.83716,-4.98655 2.20723,-10.79569 1.29884,-16.01895 -0.28194,-1.62111 -0.87106,-3.17352 -1.29884,-4.76239 -0.76401,-2.83772 -1.72625,-8.24643 -3.89649,-10.82361 -1.3212,-1.56891 -3.13665,-2.64593 -4.7624,-3.8965 -1.69398,-1.30306 -3.76787,0.50719 -4.76239,2.16472 -2.14503,3.57505 -3.91024,9.02313 -3.03061,13.42128 0.25314,1.26573 1.06767,2.35671 1.73178,3.46356 0.21,0.35001 0.4577,0.86589 0.86588,0.86589 0.3227,0 -0.72157,-0.72158 -0.43294,-0.86589 7.87851,-3.93926 2.66307,2.82817 7.36006,-6.92712 0.97994,-2.03525 2.29423,-3.92573 3.03062,-6.06122 0.71964,-2.087 0.95802,-4.31304 1.29883,-6.49417 0.79923,-5.11506 1.31139,-8.75928 0.43294,-13.85423 -0.35703,-2.0707 -1.15453,-4.04081 -1.73177,-6.06122 -0.28864,-1.0102 -0.43919,-2.07054 -0.8659,-3.03061 -0.16578,-0.373 -0.4577,-0.86589 -0.86589,-0.86589 -0.28863,0 0,0.57726 0,0.86589 0,0.28863 -0.0793,0.58836 0,0.86589 0.2135,0.74725 0.62013,1.42744 0.86589,2.16472 0.33223,0.99671 0.16306,2.24969 0.8659,3.03061 0.73522,0.81693 1.97162,1.00468 3.03061,1.29884 1.55461,0.43184 3.20053,1.27081 4.7624,0.86589 4.17277,-1.08184 11.22015,-7.15373 13.85421,-9.95773 10.64234,-11.32896 4.47046,-4.03158 7.36005,-12.12245 2.3654,-6.62313 4.724,-8.94886 5.19533,-16.01895 0.11679,-1.75178 -0.1026,-3.61427 -0.86587,-5.19534 -1.30556,-2.70435 -3.41397,-4.94247 -5.19533,-7.36005 -0.24215,-0.32862 -0.45771,-0.86589 -0.86591,-0.86589 -0.28863,0 0.16778,0.63102 0,0.86589 -0.59311,0.83038 -1.6129,1.30633 -2.16471,2.16472 -2.75749,4.28944 -3.33417,12.19505 -3.89649,16.01895 -0.126,0.85668 -0.22784,1.76229 0,2.59767 0.2214,0.81184 0.92249,1.41207 1.29881,2.16472 0.0646,0.12908 -0.08,0.55302 0,0.43295 10.64469,-15.96702 -8.52149,12.23133 4.76239,-12.12245 0.55716,-1.02144 2.68357,-0.62124 3.03062,-1.73178 0.52366,-1.67575 -0.3705,-3.51101 -0.86587,-5.19534 -0.23747,-0.8073 -0.88136,-1.4341 -1.29884,-2.16472 -0.1601,-0.28018 -0.11026,-0.86589 -0.43294,-0.86589 -0.28864,0 -0.24016,0.70579 0,0.86589 0.36023,0.24015 0.86587,0 1.29881,0 0.14433,0 -0.30385,-0.0645 -0.43294,0 -0.18253,0.0913 -0.2504,0.34167 -0.43293,0.43294 -0.56791,0.28395 -1.40372,-0.761 -0.86591,-1.29883 0.32272,-0.3227 0.97616,0.11025 1.29884,0.43294 0.14431,0.14432 -0.43293,0.22886 -0.43293,0.43295 0,0.20409 0.49747,0.23933 0.43293,0.43294 -0.12909,0.38724 -0.86587,0.45771 -0.86587,0.86589 0,0.28863 0.86587,0.28863 0.86587,0 0,-0.28863 -0.86587,-0.28863 -0.86587,0 0,1.15452 2.02038,-0.86589 0.86587,-0.86589 -0.40817,0 -0.86587,0.45771 -0.86587,0.86589 0,0.28863 0.58586,-0.07 0.86587,0 0.31306,0.0783 0.68689,0.16445 0.86591,0.43295 0.16009,0.24015 -0.0793,0.58836 0,0.86589 0.21349,0.74725 0.62013,1.42744 0.86587,2.16472 0.35642,1.06929 -1.73178,1.44315 -2.59765,2.16472 -0.11089,0.0924 0.10202,0.3309 0,0.43295 -0.10205,0.10204 -0.33092,-0.10205 -0.43297,0 -0.10205,0.10204 0.0801,0.31286 0,0.43294 -2.90004,4.35008 -0.98094,0.66305 -2.16471,3.03061"
       id="path31" />
    <path
       style="fill:none;stroke:#e59000;stroke-width:10;stroke-linecap:round;stroke-linejoin:round;stroke-opacity:1;stroke-dasharray:10, 10, 0;stroke-dashoffset:5.99999972;paint-order:normal"
       d="m 240.01224,335.52733 c -9.86688,-2.41485 -18.60064,-7.83296 -28.1647,-11.02098 -4.78986,-1.59663 -9.80725,-2.40657 -14.69463,-3.67366 -0.62474,-0.16198 -1.38046,-0.15592 -1.83683,-0.61227 -0.28863,-0.28864 0.85947,0.18253 1.22456,0 3.35109,-1.67556 6.60203,-3.55264 9.79641,-5.51048 3.137,-1.92268 6.12277,-4.08186 9.18415,-6.12278 5.1023,-2.65319 10.29455,-5.14014 15.3069,-7.95959 4.78961,-2.69415 8.70251,-7.45106 14.08235,-8.57186 1.80929,-0.37693 -0.30465,3.90585 0.61228,5.5105 0.36509,0.63889 1.50774,-0.56639 1.83683,-1.22457 0.18254,-0.36507 -0.81637,0 -1.22456,0 -1.02046,0 -2.08174,-0.28573 -3.06138,0 -3.96724,1.15713 -7.82223,2.68777 -11.63324,4.28593 -2.0917,0.87717 -13.68639,6.9361 -15.30691,7.95959 -1.34772,0.85119 -2.24793,2.34852 -3.67365,3.06139 -0.36509,0.18254 -0.33726,-0.99462 0,-1.22454 4.30905,-2.93802 8.98563,-5.29696 13.47007,-7.9596 2.04654,-1.21515 4.17291,-2.30875 6.12276,-3.67366 0.1672,-0.11705 0,-0.81637 0,-0.61227 0,2.41107 0.099,0.11726 -0.61227,3.67366 -0.4475,2.2375 -0.92298,4.47323 -1.22456,6.73502 -0.10789,0.8092 -0.67926,1.99628 0,2.44912 2.14801,1.432 4.81927,1.92606 7.34732,2.44909 3.42104,0.70781 6.92796,1.52291 10.40869,1.22457 3.79882,-0.32562 7.32835,-2.11185 11.02097,-3.06139 3.45201,-0.88765 6.95081,-1.58464 10.4087,-2.44912 0.62611,-0.15652 1.21071,-0.45574 1.83682,-0.61227 0.19801,-0.0495 0.40819,0 0.61227,0 1.63274,-0.61227 3.25604,-1.25034 4.89823,-1.83681 1.21557,-0.43416 2.51912,-0.64731 3.67366,-1.22458 0.18253,-0.0913 0,-0.81634 0,-0.61227 0,4.92416 0.36507,0.60653 -9.79644,6.12278 -10.64704,5.77982 -10.98258,5.96958 -19.59283,12.8578 -0.45076,0.3606 -1.36456,0.66452 -1.22455,1.22454 1.12332,4.49329 2.18573,0.0124 2.4491,0 4.08232,-0.19439 8.29193,1.64775 12.24553,0.61227 4.94766,-1.29579 8.94414,-4.96522 13.47007,-7.34729 22.19063,-11.67929 2.20279,0.0885 13.47007,-7.95959 0.16608,-0.11864 0.4082,0 0.61228,0 0.20409,0 0.44899,-0.12248 0.61227,0 1.50532,1.12897 3.30478,2.06809 4.28593,3.67363 1.34617,2.20284 1.41978,4.97983 2.44912,7.34732 2.7093,6.23139 2.55037,5.61176 6.12274,9.18414 0.6123,0.6123 0.97095,1.83684 1.83685,1.83684 0.73586,0 0.62942,-1.40401 1.22454,-1.83684 1.69937,-1.2359 4.15319,-1.4573 5.51048,-3.06136 1.08712,-1.28477 0.78174,-3.27454 1.22457,-4.89821 0.16981,-0.62267 0.50617,-1.20023 0.61227,-1.83684 0.10065,-0.60394 0,-1.22455 0,-1.83682 0,-0.2041 0,-0.4082 0,-0.61227 0,-0.2041 0.19362,-0.67683 0,-0.6123 -0.6981,0.2327 -1.22047,0.82259 -1.83684,1.22457 -4.07779,2.65941 -8.13827,5.34588 -12.2455,7.95959 -0.38502,0.24501 -0.81637,0.81635 -1.22457,0.61228 -0.36507,-0.18257 -0.17547,-0.85604 0,-1.22458 1.88399,-3.95636 4.34306,-7.62886 6.12278,-11.63322 0.68352,-1.53795 0.74093,-3.28621 1.22454,-4.89823 0.13113,-0.43709 0.86543,-0.84482 0.61227,-1.22455 -0.72488,-1.08733 -1.88034,-1.88965 -3.06139,-2.44909 -2.74198,-1.29884 -5.54079,-2.92669 -8.57186,-3.06138 -6.35013,-0.28224 -12.66209,1.14334 -18.98055,1.83681 -35.25806,3.8698 -24.53138,1.76374 -55.71713,9.79644 -5.32164,1.37073 -10.66,2.69224 -15.91918,4.28593 -1.48752,0.45074 -2.86557,1.20555 -4.28593,1.83682 -0.41703,0.18534 -0.78575,0.48691 -1.22455,0.61227 -1.00063,0.28591 -2.03487,0.44119 -3.06138,0.61227 -0.20132,0.0336 -0.45291,0.1275 -0.61228,0 -1.72821,-1.38255 -3.03136,-3.10597 -4.28593,-4.8982 -0.84398,-1.20568 -1.256,-2.81197 -2.4491,-3.67366 -2.58976,-1.87037 -5.73963,-2.80824 -8.57187,-4.28594 -1.86294,-0.97197 -3.59757,-2.19186 -5.51049,-3.06136 -6.36535,-2.89335 -6.35784,-2.86207 -11.63324,-3.67366 -1.42637,-0.21944 -2.87081,-0.89529 -4.28594,-0.61227 -2.68961,0.53793 -11.1857,6.64075 -12.24552,7.34729 -3.06138,2.04092 -6.06408,4.17275 -9.18414,6.12278 -1.78186,1.11366 -3.45003,2.64927 -5.51048,3.06139 -0.63287,0.12655 -0.50618,-1.20023 -0.61228,-1.83684 -0.30383,-1.82298 -0.75402,-3.66779 -0.61228,-5.51048 0.27022,-3.5128 0.79257,-7.04385 1.83683,-10.40871 1.14118,-3.67713 4.9925,-9.61991 7.34731,-12.8578 0.33953,-0.46683 0.70824,-1.4827 1.22456,-1.22454 0.54763,0.27382 -0.52502,1.5218 0,1.83681 0.87503,0.52504 2.14865,-0.45635 3.06138,0 0.57726,0.28864 0.44246,1.21418 0.61227,1.83685 1.57105,5.76051 1.22456,3.65977 1.22456,9.18414 0,2.24501 0.41373,4.52847 0,6.73504 -0.21932,1.16967 -1.4605,1.93239 -1.83683,3.06136 -0.18255,0.54764 0.88903,-0.7548 1.22455,-1.22454 4.30611,-6.02856 2.6061,-6.67538 7.34731,-8.57186 0.1895,-0.0758 0.43508,-0.10126 0.61228,0 1.27782,0.73017 2.3573,1.79093 3.67366,2.44911 0.36509,0.18254 0.87841,-0.21635 1.22455,0 0.52504,0.32814 7.88649,6.67237 7.95959,6.73502"
       id="path32" />
    <path
       style="fill:none;stroke:#808b47;stroke-width:10;stroke-linecap:butt;stroke-linejoin:miter;stroke-dasharray:none;stroke-opacity:1"
       d="m 129.01749,311.72012 v 34.63557 c 3.16324,-19.38465 7.57516,-39.34689 18.5741,-55.93975 3.69678,-6.05595 13.22454,-13.72125 15.31891,-2.6098 8.33059,19.32155 -0.86531,40.82434 5.24123,60.53286 11.58826,-14.27824 16.40273,-32.48781 25.2939,-48.3011 -3.3606,15.1775 -2.03246,31.95905 5.2644,45.82546 3.21325,6.7371 11.77669,10.75521 18.54563,6.55421 8.89257,-5.23727 15.20881,-13.77263 23.2424,-20.16424 9.39212,-7.69355 19.36798,-17.13843 32.11769,-17.90562 9.56085,0.0223 13.84049,10.5232 15.0783,18.52583 10.31595,4.62255 18.94696,-5.8412 25.84467,-12.04215 6.40609,-4.3734 -0.57361,9.25076 -0.76733,12.05059 -1.56265,3.81706 -3.86434,18.62022 2.15123,8.85113 4.64151,-8.01669 8.42648,-16.59366 10.90651,-25.52787 1.32984,12.23812 -11.33961,5.77079 -16.5231,1.55686 -6.87345,-4.31216 -17.17367,-8.6907 -23.83191,-1.71167 -5.21809,8.12512 -13.78301,13.50159 -22.7042,16.95754 -8.58902,4.33138 -18.68728,1.18462 -25.83422,-2.57297 -31.59743,9.20072 -63.60213,17.03565 -95.11883,26.46525 -8.15247,3.4756 -12.64663,-6.35296 -4.82741,-10.05951 7.7127,-6.85057 11.25815,6.70135 18.38658,2.43926 30.25499,-6.57759 55.23798,-28.63826 86.54781,-31.53696 -2.82887,10.58208 -14.92386,13.57108 -24.12766,16.29483 -15.77725,4.34951 -32.54174,5.35047 -47.62516,12.02891 13.84086,0.28501 26.16111,-7.49087 39.7193,-8.68344 7.74089,4.9288 17.48364,7.19732 27.52397,7.50446 28.65606,1.99038 56.85164,-5.27916 85.41376,-5.91978 -19.1373,23.51831 -25.69385,-9.71425 -54.73085,-6.55659 -5.25531,0.34831 -49.09983,13.55528 -41.99311,4.62338 8.74067,-6.86098 26.74828,-11.36489 37.24197,-13.12274 7.9401,-0.92548 12.04826,0.44133 27.69284,13.31618 8.08341,-2.26381 13.75469,17.1641 19.49832,10.43759 -3.98622,-6.76592 -13.92037,-7.29964 -21.20994,-7.22224 -23.65637,0.97208 -45.05911,14.62819 -68.99828,13.52114 -10.16539,1.30183 -20.47085,2.07462 -30.69925,1.04981"
       id="path30"
       sodipodi:nodetypes="cccccccccccccccccccccccccccccccccccc" />
  </g>
</svg>
